<?xml version="1.0" encoding="utf-8"?>
<!-- Generator: Adobe Illustrator 23.0.1, SVG Export Plug-In . SVG Version: 6.00 Build 0)  -->
<svg version="1.1" id="Layer_1" xmlns="http://www.w3.org/2000/svg" xmlns:xlink="http://www.w3.org/1999/xlink" x="0px" y="0px"
	 viewBox="0 0 400 400" style="enable-background:new 0 0 400 400;" xml:space="preserve">
<style type="text/css">
	.st0{fill:#009977;}
	.st1{fill:#FF7F40;}
</style>
<g>
	<rect class="st0" width="400" height="400"/>
</g>
<g>
	<path class="st1" d="M245.7,199.8h-20.6l-15.8,49.5h-0.3l-16.4-49.5h-21.3l25.5,67.9c2.2,5.7,0,12.9-6.9,13.6
		c-3.9,0.1-7.8-0.4-11.6-0.7v16.4c4.1,0.4,8.1,0.7,12.2,0.7c13.7,0,20.6-4.8,24.9-16.4L245.7,199.8z M133.8,273.6h19.9V241
		c0-12.7,5-23.2,19.6-23.2c2.4,0,5.3,0.3,7.1,0.7V200c-1.3-0.4-2.9-0.7-4.3-0.7c-9.7,0-19.4,6.3-23.1,15.4h-0.3v-13.4h-18.9V273.6z
		 M115.3,179.6H95.5v21.7h-12v13.3h12v42.7c0,14.4,10.6,17.2,22.8,17.2c3.9,0,8.3-0.1,11.6-0.7v-15.5c-2.1,0.4-4.1,0.6-6.2,0.6
		c-6.7,0-8.4-1.7-8.4-8.4v-35.8h14.6v-13.3h-14.6V179.6z M24.4,250.1c0.8,19.2,17.2,25.5,34,25.5c16.5,0,33-6.2,33-25.2
		c0-13.4-11.3-17.6-22.9-20.3c-11.3-2.7-22.5-3.6-22.5-10.8c0-5.9,6.6-6.7,11.1-6.7c7.1,0,13,2.1,13.6,9.8h18.9
		c-1.5-17.8-16.1-23.1-31.9-23.1c-15.5,0-31.5,4.8-31.5,23.2c0,12.7,11.5,16.8,22.9,19.3c14.3,3.1,22.5,5.2,22.5,11.2
		c0,7-7.3,9.2-13,9.2c-7.8,0-15.1-3.5-15.3-12.2H24.4z M20.6,173.7H0.8v16.4h19.9V173.7z M0.8,273.6h19.9v-72.3H0.8V273.6z"/>
	<path class="st1" d="M360.2,146.4h42.1v-17.1h-42.1V146.4z M242.5,176.1h19.9v-42c0-14.1,9.5-16.6,13.4-16.6c12.6,0,12,9.7,12,18
		v40.6h19.9v-40.3c0-9.1,2.1-18.3,13.3-18.3c11.3,0,12.2,8,12.2,17.6v41H353v-48.4c0-18.7-11.1-25.9-26.4-25.9
		c-10.1,0-17.6,5.7-21.8,12c-3.9-8.7-12-12-21.1-12c-9.4,0-16.9,4.3-22.1,11.8h-0.3v-9.8h-18.7V176.1z M186.4,132.2
		c0.3-5.6,3.9-15.4,16.5-15.4c9.7,0,14,5.3,15.8,15.4H186.4z M238.6,144.8c1.4-22.2-10.5-43-35.1-43c-22,0-36.9,16.5-36.9,38.2
		c0,22.4,14.1,38.1,36.9,38.1c16.4,0,28.3-7.3,33.9-24.3h-17.5c-1.3,4.5-7.7,9.4-15.7,9.4c-11.1,0-17.2-5.7-17.8-18.3H238.6z
		 M95.5,176.1h19.9v-37.9c0-14.7,4.6-20.7,15.4-20.7c9.2,0,12.7,5.9,12.7,17.8v40.9h19.9v-44.5c0-17.9-5.3-29.8-26.4-29.8
		c-7.4,0-16.1,3.9-21.1,12h-0.4V76.2H95.5V176.1z M90.2,109.8c-2.7-23.1-21.1-36-43.1-36C16.1,73.8-2,96.9-2,126.6
		c0,28.8,18.2,51.9,49.1,51.9c24.5,0,41.7-15.9,43.9-40.9H69.7c-1.7,13.2-9.2,22.4-22.7,22.4c-19.7,0-27.1-16.8-27.1-33.4
		c0-17.5,7.4-34.3,27.1-34.3c10.9,0,20.4,7.6,21.8,17.5H90.2z"/>
	<path class="st1" d="M147.4,381.1h-7.1v14.4h7.1V381.1z M75.9,355.7c1.1-14.2,10.5-29.1,26.4-29.1c16.5,0,26,14,26.3,29.1H75.9z
		 M133.9,360.3c1-20.5-9.1-38.3-31.6-38.3c-21.6,0-32,19.1-31.7,38.8c-0.3,19.8,10.8,36.3,31.7,36.3c17,0,28.2-9.2,31-26H128
		c-2.5,13.3-12.2,21.4-25.7,21.4c-17.7,0-26.7-15.4-26.4-32.3H133.9z M9.8,390.2c1-11.9,15.1-20.4,28.9-29.6
		c13.8-9.2,27.1-19.8,27.1-36.7c0-17.7-13.5-26.4-29.9-26.4c-18.9,0-29.3,11.2-30.4,34.2h5.3c0-16.6,8.4-29.6,26-29.6
		c12.6,0,23.7,8.5,23.7,21.6c0,16.2-14,25.1-27.9,34.5c-14.1,9.4-28.4,19.3-29.5,37.3h64.2v-5.3H9.8z"/>
</g>
</svg>
