<svg id="Layer_1" data-name="Layer 1" xmlns="http://www.w3.org/2000/svg" viewBox="0 0 400 400"><defs><style>.cls-1{fill:#0c9390;}.cls-2{fill:#ffbf3b;}</style></defs><title>prealgebra</title><rect class="cls-1" width="400" height="400"/><path class="cls-2" d="M59.09,32a45.36,45.36,0,0,1,17.38,3,32.54,32.54,0,0,1,11.66,7.85A30.2,30.2,0,0,1,94.7,53.94a41.58,41.58,0,0,1,0,25.84A30.07,30.07,0,0,1,88.14,91a32.51,32.51,0,0,1-11.66,7.85,45.35,45.35,0,0,1-17.38,3H33.94v39H10V32H59.09ZM52.54,83.22a50,50,0,0,0,7.93-.61,18.42,18.42,0,0,0,6.71-2.36,12.88,12.88,0,0,0,4.65-5,17.43,17.43,0,0,0,1.75-8.39,17.44,17.44,0,0,0-1.75-8.39,12.9,12.9,0,0,0-4.65-5,18.52,18.52,0,0,0-6.71-2.36,50.35,50.35,0,0,0-7.93-.61H33.94V83.22h18.6Z"/><path class="cls-2" d="M121.39,62V76.66h0.3a26.56,26.56,0,0,1,4.12-6.78,27,27,0,0,1,5.95-5.34,29.13,29.13,0,0,1,7.17-3.43,25.87,25.87,0,0,1,7.93-1.22,16.93,16.93,0,0,1,4.73.76V80.78q-1.53-.3-3.66-0.53A38.67,38.67,0,0,0,143.8,80a23.09,23.09,0,0,0-10.06,2,17.44,17.44,0,0,0-6.63,5.41,21.68,21.68,0,0,0-3.58,8,43.52,43.52,0,0,0-1.07,9.91v35.52H100.81V62h20.58Z"/><path class="cls-2" d="M177.12,121.94q4.88,4.73,14,4.73a19.3,19.3,0,0,0,11.28-3.28q4.72-3.28,5.79-6.94h19.06q-4.57,14.18-14,20.28t-22.87,6.1a45,45,0,0,1-16.77-3A34.85,34.85,0,0,1,161,131.4a38.05,38.05,0,0,1-8-13.11,48,48,0,0,1-2.82-16.77A46,46,0,0,1,153,85a38.11,38.11,0,0,1,21-22,40.82,40.82,0,0,1,16.39-3.2,37.48,37.48,0,0,1,17.53,3.89,35,35,0,0,1,12.27,10.44,43,43,0,0,1,6.94,14.94,55.73,55.73,0,0,1,1.52,17.53H171.78Q172.24,117.22,177.12,121.94Zm24.47-41.47q-3.89-4.27-11.82-4.27A18.85,18.85,0,0,0,181.16,78a16.42,16.42,0,0,0-5.49,4.35,15.92,15.92,0,0,0-2.9,5.49,24.69,24.69,0,0,0-1,5.18H207Q205.47,84.74,201.59,80.47Z"/><path class="cls-2" d="M281.17,89.92v18.6H235.28V89.92h45.89Z"/><path class="cls-2" d="M19.76,200a25.14,25.14,0,0,1,3.81-12.65,26,26,0,0,1,8.54-8.08,37.22,37.22,0,0,1,11.66-4.35,66.43,66.43,0,0,1,13-1.3,88.61,88.61,0,0,1,12,.84A36.93,36.93,0,0,1,80,177.72a21.93,21.93,0,0,1,8.23,6.78q3.2,4.34,3.2,11.51v41A82.21,82.21,0,0,0,92,247.25a18.41,18.41,0,0,0,2.13,7.32h-22a30.58,30.58,0,0,1-1-3.74,32,32,0,0,1-.53-3.89,28.2,28.2,0,0,1-12.2,7.47,49,49,0,0,1-14.33,2.13,38.7,38.7,0,0,1-10.52-1.37,24.07,24.07,0,0,1-8.54-4.27,19.85,19.85,0,0,1-5.72-7.32,24.74,24.74,0,0,1-2.06-10.52A23,23,0,0,1,19.68,222a19.76,19.76,0,0,1,6.1-6.94,27.35,27.35,0,0,1,8.54-3.89A91.75,91.75,0,0,1,44,209.13q4.88-.76,9.61-1.22A57.76,57.76,0,0,0,62,206.54a14.62,14.62,0,0,0,5.79-2.67,5.86,5.86,0,0,0,2-5.11,11.49,11.49,0,0,0-1.14-5.57,8.42,8.42,0,0,0-3-3.2,12,12,0,0,0-4.42-1.52,36.41,36.41,0,0,0-5.41-.38q-6.4,0-10.06,2.74T41.41,200H19.76Zm50,16a9.7,9.7,0,0,1-3.43,1.91A35.14,35.14,0,0,1,61.91,219q-2.37.46-5,.76t-5.18.76a39.12,39.12,0,0,0-4.8,1.22,14.23,14.23,0,0,0-4.12,2.06A9.78,9.78,0,0,0,40,227.12a10.54,10.54,0,0,0-1.07,5A10.17,10.17,0,0,0,40,237a8.17,8.17,0,0,0,2.9,3.13,12.22,12.22,0,0,0,4.27,1.6,27.19,27.19,0,0,0,5,.46q6.4,0,9.91-2.13A14.29,14.29,0,0,0,67.33,235a16.35,16.35,0,0,0,2.06-6,41.71,41.71,0,0,0,.38-4.88V216Z"/><path class="cls-2" d="M122.55,145.7V254.56H100.9V145.7h21.65Z"/><path class="cls-2" d="M206,260.36a26.73,26.73,0,0,1-5.56,11.36q-4.27,5.26-12.35,8.92t-21.65,3.66a50.42,50.42,0,0,1-11.82-1.45,37.57,37.57,0,0,1-11-4.5,27,27,0,0,1-8.23-7.85A22.75,22.75,0,0,1,131.65,259h21.5q1.52,6.1,5.95,8.46a21.35,21.35,0,0,0,10.22,2.36q9.15,0,13.34-5.49t4-13.88V240.08h-0.3a21.44,21.44,0,0,1-10,9.22,32.35,32.35,0,0,1-13.65,3,34.42,34.42,0,0,1-15.25-3.13A28.91,28.91,0,0,1,137,240.61,35.58,35.58,0,0,1,131,228a59.9,59.9,0,0,1-1.91-15.32,49.11,49.11,0,0,1,2.21-14.71,38.42,38.42,0,0,1,6.48-12.5,31.31,31.31,0,0,1,10.6-8.61,31.82,31.82,0,0,1,14.56-3.2,30.49,30.49,0,0,1,13.65,2.9,23.57,23.57,0,0,1,9.83,9.76h0.3V175.74h20.58v73.79A52.89,52.89,0,0,1,206,260.36Zm-29.65-26.22a16.9,16.9,0,0,0,5.79-4.88,21.6,21.6,0,0,0,3.43-6.94,28.75,28.75,0,0,0,1.14-8.16,44.68,44.68,0,0,0-.92-9.22,23.06,23.06,0,0,0-3-7.7,15.83,15.83,0,0,0-5.64-5.34,17.81,17.81,0,0,0-8.84-2,15.87,15.87,0,0,0-7.85,1.83,16.5,16.5,0,0,0-5.49,5,20.89,20.89,0,0,0-3.2,7.17,35.33,35.33,0,0,0-1,8.46,43,43,0,0,0,.84,8.46,22.81,22.81,0,0,0,2.9,7.55,16.9,16.9,0,0,0,5.41,5.49,15.32,15.32,0,0,0,8.39,2.13A17.23,17.23,0,0,0,176.32,234.13Z"/><path class="cls-2" d="M261.95,203.64v18.6H216.06v-18.6h45.89Z"/><path class="cls-2" d="M44.3,349.37q4.88,4.73,14,4.73a19.29,19.29,0,0,0,11.28-3.28q4.72-3.28,5.79-6.94H94.47q-4.57,14.18-14,20.28t-22.87,6.1a45,45,0,0,1-16.77-3,34.85,34.85,0,0,1-12.65-8.46,38,38,0,0,1-8-13.11,48,48,0,0,1-2.82-16.77,46,46,0,0,1,2.9-16.47,38.11,38.11,0,0,1,21-22,40.82,40.82,0,0,1,16.39-3.2,37.48,37.48,0,0,1,17.53,3.89,35,35,0,0,1,12.27,10.44,43,43,0,0,1,6.94,14.94,55.73,55.73,0,0,1,1.52,17.53H39Q39.43,344.65,44.3,349.37ZM68.78,307.9q-3.89-4.27-11.82-4.27a18.85,18.85,0,0,0-8.61,1.75,16.42,16.42,0,0,0-5.49,4.35,15.91,15.91,0,0,0-2.9,5.49,24.69,24.69,0,0,0-1,5.18H74.19Q72.66,312.17,68.78,307.9Z"/><path class="cls-2" d="M122.73,259.42v39.64H123a23.11,23.11,0,0,1,10.75-8.92,36.4,36.4,0,0,1,14.1-2.82,30.06,30.06,0,0,1,22.18,9.91,38.23,38.23,0,0,1,7.55,12.88,61.66,61.66,0,0,1,0,37.35,38.2,38.2,0,0,1-7.55,12.88,30.06,30.06,0,0,1-22.18,9.91,41.59,41.59,0,0,1-15.55-2.74,19.73,19.73,0,0,1-10.37-9.3h-0.3v10.06H101.08V259.42h21.65Zm35.07,59.92a25.13,25.13,0,0,0-3.35-8.08,17.57,17.57,0,0,0-5.72-5.56,17.65,17.65,0,0,0-16.54,0,17.3,17.3,0,0,0-5.79,5.56,25.08,25.08,0,0,0-3.35,8.08,42.11,42.11,0,0,0-1.07,9.61,41.42,41.42,0,0,0,1.07,9.45,25.05,25.05,0,0,0,3.35,8.08,17.29,17.29,0,0,0,5.79,5.57,17.65,17.65,0,0,0,16.54,0,17.55,17.55,0,0,0,5.72-5.57,25.11,25.11,0,0,0,3.35-8.08,41.56,41.56,0,0,0,1.07-9.45A42.25,42.25,0,0,0,157.8,319.34Z"/><path class="cls-2" d="M207.12,289.45v14.64h0.3a26.55,26.55,0,0,1,4.12-6.78,27,27,0,0,1,5.95-5.34,29.13,29.13,0,0,1,7.17-3.43,25.86,25.86,0,0,1,7.93-1.22,16.93,16.93,0,0,1,4.73.76v20.13q-1.53-.3-3.66-0.53a38.83,38.83,0,0,0-4.12-.23,23.08,23.08,0,0,0-10.06,2,17.44,17.44,0,0,0-6.63,5.41,21.68,21.68,0,0,0-3.58,8,43.53,43.53,0,0,0-1.07,9.91v35.52H186.54V289.45h20.58Z"/><path class="cls-2" d="M238.25,313.69A25.15,25.15,0,0,1,242.07,301,25.94,25.94,0,0,1,250.6,293a37.21,37.21,0,0,1,11.66-4.35,66.42,66.42,0,0,1,13-1.3,88.67,88.67,0,0,1,12,.84,36.94,36.94,0,0,1,11.13,3.28,22,22,0,0,1,8.23,6.78q3.2,4.35,3.2,11.51v41a82.15,82.15,0,0,0,.61,10.22,18.42,18.42,0,0,0,2.13,7.32h-22a30.63,30.63,0,0,1-1-3.74,32.21,32.21,0,0,1-.53-3.89,28.2,28.2,0,0,1-12.2,7.47,49,49,0,0,1-14.33,2.13,38.7,38.7,0,0,1-10.52-1.37,24.07,24.07,0,0,1-8.54-4.27,19.85,19.85,0,0,1-5.72-7.32,24.74,24.74,0,0,1-2.06-10.52,23,23,0,0,1,2.36-11.05,19.75,19.75,0,0,1,6.1-6.94,27.36,27.36,0,0,1,8.54-3.89,91.76,91.76,0,0,1,9.68-2.06q4.88-.76,9.61-1.22a57.76,57.76,0,0,0,8.39-1.37,14.62,14.62,0,0,0,5.79-2.67,5.86,5.86,0,0,0,2-5.11,11.49,11.49,0,0,0-1.14-5.56,8.41,8.41,0,0,0-3-3.2,12,12,0,0,0-4.42-1.52,36.41,36.41,0,0,0-5.41-.38q-6.4,0-10.06,2.74t-4.27,9.15H238.25Zm50,16a9.7,9.7,0,0,1-3.43,1.91,35.16,35.16,0,0,1-4.42,1.14q-2.37.46-5,.76t-5.18.76a39.08,39.08,0,0,0-4.8,1.22,14.23,14.23,0,0,0-4.12,2.06,9.78,9.78,0,0,0-2.82,3.28,10.53,10.53,0,0,0-1.07,5,10.16,10.16,0,0,0,1.07,4.88,8.16,8.16,0,0,0,2.9,3.13,12.23,12.23,0,0,0,4.27,1.6,27.2,27.2,0,0,0,5,.46q6.4,0,9.91-2.13a14.29,14.29,0,0,0,5.18-5.11,16.35,16.35,0,0,0,2.06-6,41.72,41.72,0,0,0,.38-4.88V329.7Z"/></svg>